<?xml version="1.0" encoding="UTF-8"?>
<svg id="Layer_1" data-name="Layer 1" xmlns="http://www.w3.org/2000/svg" viewBox="0 0 40 40">
  <path d="M35.83,20.61v.38c-.3,3.8-1.83,7.38-4.52,10.08-.37-5.16-1.48-10.45-3.99-14.91.77-.22,1.5-.38,2.27-.41,2.3-.08,4.9,3.31,6.24,4.85Z"/>
  <path d="M20.92,4.18c.16,0,.36.08.6.07.04.53.04,1.1.04,1.66-.07.3-.13.55-.25.81-.51.59-1.02,1.11-1.62,1.62-1.69-1.19-3.39-2.21-5.27-3.13,1.5-.61,3.07-.86,4.65-1.03h1.86Z"/>
  <path d="M19.19,32.04c-.39,1.27-.81,2.44-1.38,3.65-3.66-.52-6.99-2.27-9.5-5.01.51-4.3,4.24-8.68,7.25-11.63,2.27-2.2,4.7-4.18,7.32-5.98.79.76,1.48,1.55,2.13,2.47-.86.64-1.49,1.44-1.96,2.41-.55,1.13-.87,2.29-1.19,3.51l-1.42,5.93c-.38,1.58-.78,3.07-1.26,4.65Z"/>
  <path d="M4.21,20.98c-.14-1.76.11-3.65.57-5.3,1-.54,2-.93,3.11-1.22,1.59-.41,3.14-.71,4.76-1,1.46-.27,2.81-.63,4.13-1.3,1.06-.51,2.01-1.12,2.97-1.82.66.52,1.28,1.02,1.95,1.61-3.87,2.72-7.54,5.87-10.54,9.55-1.82,2.26-3.36,4.66-4.15,7.53-1.66-2.4-2.62-5.14-2.8-8.05Z"/>
  <path d="M19.51,35.81c.64-1.53,1.17-3.02,1.59-4.62l.89-3.39,1.4-5.83c.38-1.57,1.09-4.16,2.49-5.1,2.6,4.58,3.71,10.34,3.9,15.57-2.91,2.28-6.54,3.5-10.27,3.36Z"/>
  <path d="M13.53,11.67l-4,.78c-1.35.26-2.62.62-3.96,1.09,1.44-3.22,3.88-5.8,6.93-7.46,2.08.91,4.02,2,5.88,3.28-1.48,1.07-3.05,1.87-4.84,2.31Z"/>
  <path d="M28.79,14.24c-.83.11-1.59.3-2.35.55-.66-.94-1.37-1.79-2.18-2.62,1.1-.69,2.17-1.3,3.36-1.8,1.37-.46,2.74-.73,4.17-.91,2.14,2.4,3.51,5.37,3.9,8.58-1.21-1.36-2.7-2.87-4.44-3.55-.79-.3-1.6-.38-2.47-.25Z"/>
  <path d="M23.07,11.03l-2.06-1.74c1.91-1.84,2.2-2.09,2.13-4.8,2.69.55,5.16,1.76,7.22,3.56-1.24.26-2.37.47-3.48.92-1.33.55-2.53,1.28-3.8,2.06Z"/>
</svg>