<svg xmlns="http://www.w3.org/2000/svg" viewBox="0 0 75 75" fill="none">
  <path fill="#fff" d="M70.81,32.5v-3.74c0-5.36-4.37-9.73-9.73-9.73h-1.07v-4.61c0-5.37-4.37-9.74-9.74-9.74H9.75C4.39,4.69.02,9.05.02,14.42v4.61h-.02v33.5c0,5.36,4.36,9.72,9.72,9.72h9.38v-4.69h-9.38c-2.77,0-5.03-2.26-5.03-5.03v-28.81h56.39c2.83,0,5.04,2.21,5.04,5.04v2c-.29-.02-.56-.1-.85-.1h-6c-5.36,0-9.72,4.36-9.72,10.29,0,5.36,4.36,9.73,9.72,9.73h6c.29,0,.56-.07.85-.1v1.94c0,2.77-2.26,5.03-5.04,5.03h-11.63v4.69h11.63c5.36,0,9.73-4.36,9.73-9.72v-3.71c2.58-1.79,4.19-4.64,4.19-7.87v-.56c0-3.27-1.67-6.19-4.19-7.89ZM4.71,14.42c0-2.78,2.26-5.05,5.04-5.05h40.52c2.78,0,5.05,2.27,5.05,5.05v4.59H4.71v-4.59ZM59.26,46c-2.77,0-5.03-2.26-5.03-5.6,0-2.82,2.21-5.03,5.03-5.03h6c.77,0,1.51.17,2.23.54,1.71.77,2.81,2.53,2.81,4.49v.56c0,1.95-1.09,3.68-2.94,4.56-.58.31-1.33.48-2.1.48h-6Z"/>
  <path fill="#fff" d="M23.66 60.47 26.98 63.79 31.36 59.41 31.36 70.31 36.05 70.31 36.05 59.42 40.22 63.6 43.55 60.27 33.7 50.43 23.66 60.47"/>
</svg>
