<svg width="145" height="145" viewBox="0 0 145 145" fill="none" xmlns="http://www.w3.org/2000/svg">
<path d="M78.5404 48.3346C78.5404 44.9979 75.8355 42.293 72.4987 42.293C69.1619 42.293 66.457 44.9979 66.457 48.3346V72.5013C66.457 74.5216 67.4666 76.4078 69.1474 77.5286L87.2724 89.6119C90.0485 91.4625 93.7998 90.7121 95.651 87.9359C97.5015 85.1598 96.7512 81.4085 93.975 79.5574L78.5404 69.2678V48.3346Z" fill="white"/>
<path fill-rule="evenodd" clip-rule="evenodd" d="M42.2904 12.084C25.6068 12.084 12.082 25.6087 12.082 42.2923V102.709C12.082 119.392 25.6068 132.917 42.2904 132.917H102.707C119.39 132.917 132.915 119.392 132.915 102.709V42.2923C132.915 25.6087 119.39 12.084 102.707 12.084H42.2904ZM24.1654 42.2923C24.1654 32.2822 32.2802 24.1673 42.2904 24.1673H102.707C112.717 24.1673 120.832 32.2822 120.832 42.2923V102.709C120.832 112.719 112.717 120.834 102.707 120.834H42.2904C32.2802 120.834 24.1654 112.719 24.1654 102.709V42.2923Z" fill="white"/>
</svg>
